<svg width="1000" height="1000" viewBox="0 0 1000 1000" fill="none" xmlns="http://www.w3.org/2000/svg">
<rect width="1000" height="1000" fill="#D9D9D9"/>
<path d="M815 261.3V675C814.993 705.817 804.818 735.771 786.052 760.217C767.287 784.662 740.98 802.233 711.211 810.204C681.443 818.175 649.876 816.101 621.406 804.304C592.936 792.507 569.154 771.645 553.748 744.955C538.342 718.264 532.174 687.236 536.199 656.683C540.224 626.13 554.218 597.758 576.01 575.968C597.803 554.178 626.176 540.187 656.73 536.166C687.284 532.144 718.311 538.316 745 553.725V401.335L395 459.645V710C395 712.1 394.825 714.13 394.475 716.09C396.987 743.004 390.527 769.993 376.101 792.853C361.675 815.713 340.093 833.16 314.717 842.474C289.342 851.789 261.598 852.449 235.808 844.351C210.018 836.254 187.631 819.853 172.134 797.705C156.637 775.557 148.902 748.905 150.132 721.902C151.362 694.898 161.49 669.06 178.936 648.413C196.382 627.766 220.168 613.469 246.588 607.75C273.007 602.031 300.576 605.211 325 616.795V319.645C324.997 303.074 330.874 287.041 341.583 274.396C352.292 261.751 367.14 253.316 383.485 250.59L733.485 192.28C743.511 190.608 753.781 191.139 763.581 193.837C773.381 196.536 782.476 201.336 790.233 207.904C797.99 214.472 804.224 222.651 808.501 231.872C812.778 241.093 814.996 251.135 815 261.3ZM272.5 675C258.576 675 245.222 680.531 235.376 690.377C225.531 700.222 220 713.576 220 727.5C220 741.424 225.531 754.777 235.376 764.623C245.222 774.469 258.576 780 272.5 780C286.423 780 299.777 774.469 309.623 764.623C319.468 754.777 325 741.424 325 727.5C325 713.576 319.468 700.222 309.623 690.377C299.777 680.531 286.423 675 272.5 675ZM675 605C656.434 605 638.63 612.375 625.502 625.502C612.375 638.63 605 656.435 605 675C605 693.565 612.375 711.37 625.502 724.497C638.63 737.625 656.434 745 675 745C693.565 745 711.369 737.625 724.497 724.497C737.625 711.37 745 693.565 745 675C745 656.435 737.625 638.63 724.497 625.502C711.369 612.375 693.565 605 675 605ZM745 261.3L395 319.645V388.7L745 330.355V261.3Z" fill="#F1F1F1"/>
</svg>
