<svg width="836" height="392" viewBox="0 0 836 392" fill="none" xmlns="http://www.w3.org/2000/svg">
<g clip-path="url(#clip0_1_702)">
<rect width="836" height="392" fill="white"/>
<circle cx="190.132" cy="196.132" r="145" transform="rotate(45 190.132 196.132)" stroke="#608BC1" stroke-width="10"/>
<circle cx="190.132" cy="195.772" r="45" transform="rotate(45 190.132 195.772)" fill="#CBDCEB"/>
<circle cx="190.132" cy="196.416" r="20" transform="rotate(45 190.132 196.416)" fill="#608BC1"/>
<path d="M130.735 211.688C131.443 230.698 148.173 252.173 173.869 254.822" stroke="#608BC1" stroke-width="8" stroke-linecap="round"/>
<path d="M98.9153 209.567C105.24 247.637 137.453 281.338 176.697 287.349" stroke="#608BC1" stroke-width="9" stroke-linecap="round"/>
<path d="M69.2168 210.981C79.8215 268.365 117.136 305.301 175.283 317.047" stroke="#608BC1" stroke-width="9" stroke-linecap="round"/>
<path d="M206.601 135.823C225.611 136.531 247.085 153.26 249.734 178.956" stroke="#608BC1" stroke-width="8" stroke-linecap="round"/>
<path d="M204.48 104.002C242.551 110.327 276.252 142.539 282.262 181.784" stroke="#608BC1" stroke-width="9" stroke-linecap="round"/>
<path d="M205.894 74.3036C263.279 84.9078 300.215 122.222 311.96 180.37" stroke="#608BC1" stroke-width="9" stroke-linecap="round"/>
<circle cx="136.082" cy="141.082" r="3.5" transform="rotate(45 136.082 141.082)" fill="white"/>
<g filter="url(#filter0_d_1_702)">
<path d="M126.029 114.398L130.92 142.077" stroke="#608BC1" stroke-width="15" stroke-linecap="round"/>
</g>
<g filter="url(#filter1_d_1_702)">
<path d="M71.4537 78L125.219 113.36" stroke="#608BC1" stroke-width="15" stroke-linecap="round"/>
</g>
<rect x="118.802" y="114.611" width="13.1778" height="15.4925" transform="rotate(-11.4504 118.802 114.611)" fill="#608BC1" stroke="#608BC1"/>
<circle cx="130.982" cy="141.349" r="3" transform="rotate(45.3828 130.982 141.349)" fill="#608BC1" stroke="#CBDCEB"/>
<rect x="61.4874" y="31.132" width="50" height="50" rx="14" transform="rotate(45 61.4874 31.132)" fill="#CBDCEB"/>
<path d="M268.304 274.344C268.208 275.88 267.92 277.608 267.344 279.048C267.056 279.72 266.576 280.392 266.096 280.776C265.424 281.352 264.656 281.736 263.6 281.832C261.776 282.408 260.144 282.12 258.704 281.448C255.152 279.24 255.632 274.728 255.536 271.368V263.88L255.44 249.192C255.44 245.064 255.44 245.448 255.344 240.936C255.344 240.552 255.44 240.264 255.248 236.04C245.264 252.648 243.056 255.24 239.408 255.528C237.296 255.72 235.184 253.32 234.032 251.88C230.96 248.04 227.024 242.856 222.896 235.176C222.8 235.656 222.704 275.976 222.32 276.072C222.32 280.392 218 284.136 212.72 281.352C211.088 280.296 210.224 278.088 210.032 276.456C209.936 274.728 209.84 273 209.84 271.272L209.936 263.784L210.032 249V236.136C210.032 230.568 210.224 225.096 210.608 219.72C210.608 218.376 210.992 217.128 211.472 215.976C211.952 215.016 212.528 214.248 213.488 213.672C214.448 213.096 215.504 212.808 216.56 212.808C217.424 212.808 218.288 212.904 219.056 213C221.648 213.48 223.376 216.744 225.008 218.472C227.024 220.776 229.808 225.48 231.344 227.976C234.704 233.352 237.2 237.96 239.504 241.128C240.176 240.36 241.808 237.96 242.288 237C244.976 232.872 247.184 229.512 251.408 222.504C253.232 219.528 257.264 212.904 261.392 212.808C262.352 212.808 263.12 212.904 263.888 213C264.752 213.096 265.424 213.48 266.096 214.056C266.576 214.536 266.96 215.016 267.248 215.688C267.44 216.36 267.632 217.128 267.728 217.8C267.824 218.664 267.92 219.432 267.92 220.2C267.92 227.304 268.112 234.408 268.112 241.512C268.112 250.152 268.208 259.752 268.208 268.392C268.208 270.216 268.4 272.328 268.304 274.344ZM330.412 218.568C331.852 230.856 331.084 253.128 328.396 262.152C327.532 264.84 326.188 267.912 324.844 270.216C320.812 277.128 312.556 280.776 304.876 281.16C298.156 281.448 291.916 279.24 286.828 274.344C279.148 266.856 277.996 257.352 278.092 246.792C278.092 241.8 277.9 231.336 278.092 226.152C278.188 222.792 277.804 218.088 279.916 215.016C282.316 211.752 288.748 211.848 291.244 215.208C291.916 216.168 292.108 217.224 292.204 218.472C292.78 227.016 292.204 241.128 292.204 245.16C292.204 252.744 292.684 259.272 295.468 263.304C297.964 266.952 301.708 267.72 305.164 267.336C308.332 266.952 311.98 265.032 313.9 261.192C314.668 259.752 315.244 257.832 315.436 256.296C316.396 246.504 317.068 229.416 316.684 219.048C316.684 219.048 317.164 212.616 323.884 212.712C329.26 212.808 330.412 218.568 330.412 218.568ZM388.568 253.32C389.816 256.968 389.816 262.632 388.664 266.088C384.536 280.488 361.688 285.48 348.632 278.28C344.504 275.976 341.624 272.616 339.608 268.488C338.168 265.608 338.744 260.616 342.776 259.656C345.464 259.08 349.4 259.56 350.936 262.824C352.28 265.512 355.16 267.816 358.136 269.256C366.584 272.136 376.28 267.72 376.28 260.328C376.28 254.28 372.632 252.552 367.16 251.208C361.112 249.96 354.392 250.44 348.536 247.848C336.824 242.952 336.248 226.344 344.696 218.28C348.824 214.632 354.584 213.192 361.496 212.904C369.176 212.616 377.624 214.44 382.136 218.28C385.4 220.872 389.816 227.4 384.92 230.376C380.888 232.968 377.528 228.84 374.84 226.92C371.384 224.328 365.624 223.56 361.208 224.04C355.64 224.712 351.128 227.688 351.608 233.448C351.896 237.576 356.312 238.92 360.056 239.4C365.72 240.168 371.672 240.072 377.144 242.184C382.712 244.392 386.936 248.136 388.568 253.32ZM400.222 272.52V271.08L400.318 263.496L400.414 249.384C400.51 245.352 400.51 240.936 400.51 236.328C400.51 231.72 400.51 228.552 400.702 224.136V223.752C400.798 222.504 400.894 221.064 400.894 219.72C400.99 218.472 401.374 217.224 401.95 215.976C402.43 215.016 403.006 214.344 403.966 213.672C404.926 213.192 405.982 212.904 406.942 212.904C407.902 212.904 408.766 213 409.534 213.096C410.302 213.192 411.07 213.576 411.742 214.248C412.222 214.632 412.51 215.112 412.798 215.784C412.99 216.552 413.278 217.224 413.374 217.992C413.47 218.856 413.566 219.624 413.566 220.392C413.566 221.256 413.47 221.928 413.47 222.696V224.328L412.894 274.152V275.112C412.894 275.496 412.798 276.072 412.702 276.84C412.51 277.512 412.318 278.184 412.03 278.952C411.646 279.624 411.262 280.2 410.59 280.68C410.014 281.256 409.15 281.544 408.094 281.736C406.366 282.12 404.638 281.928 403.198 281.256C402.526 280.776 401.95 280.2 401.566 279.336C401.374 279.144 401.278 278.952 401.278 278.76C401.182 278.568 400.99 278.376 400.894 278.184C400.702 277.512 400.51 276.84 400.51 276.072C400.414 275.496 400.318 274.824 400.222 274.152C400.126 273.576 400.126 273.096 400.222 272.52ZM475.129 265.128C478.585 272.424 467.353 279.72 459.769 281.544C451.321 283.368 440.665 281.256 433.177 275.016C424.249 267.624 423.673 253.224 424.537 242.76C425.209 233.352 430.681 221.352 441.049 215.592C448.921 211.08 461.881 212.232 468.217 218.088C472.249 221.64 478.585 232.2 470.041 234.312C466.489 235.272 464.473 232.68 462.649 230.376C456.409 222.984 445.273 225.384 441.433 233.64C437.401 242.28 436.153 255.336 441.529 263.016C445.753 269.064 454.009 270.888 460.537 267.24C462.649 266.184 465.241 263.112 468.217 262.248C470.521 261.48 473.785 262.344 475.129 265.128ZM497.582 215.592C514.766 209.064 525.518 218.28 530.414 231.24C534.158 241.032 534.542 253.032 531.854 261.864C531.086 264.744 530.03 267.144 528.686 269.544C525.518 275.016 520.142 278.568 514.19 279.912C505.934 281.832 496.526 279.72 489.998 273.384C482.126 265.704 480.014 252.456 480.782 242.28C481.454 232.872 486.83 219.624 497.582 215.592ZM520.046 256.68C521.582 250.728 521.39 242.472 519.182 235.848C516.398 227.592 510.926 222.792 501.326 227.304C495.662 229.992 493.646 237.768 493.262 243.912C492.782 250.536 493.646 259.08 497.87 264.168C501.134 268.008 505.934 269.448 510.254 268.488C513.806 267.72 516.494 265.32 518.318 261.48C519.086 260.04 519.662 258.408 520.046 256.68Z" fill="#223A58"/>
<path d="M209.376 319.524C209.376 315.168 214.776 313.908 221.4 313.908C228.024 313.908 233.424 314.664 233.424 319.524C233.424 324.312 228.024 325.14 221.4 325.14C214.776 325.14 209.376 324.312 209.376 319.524ZM220.608 307.32C221.436 307.32 222.3 307.356 223.236 307.752C224.172 308.148 224.316 309.192 224.28 309.696C224.1 311.568 221.832 311.964 219.708 311.964H213.552C211.824 312 209.916 312 209.16 310.848C208.332 309.588 208.512 306.744 208.512 306.6L208.584 300.12C208.584 299.832 208.584 298.428 208.944 297.816C209.376 297.132 209.772 296.844 210.528 296.736C211.068 296.628 211.752 296.592 212.616 296.592C213.084 296.592 218.844 296.664 219.312 296.736C220.572 296.736 222.084 296.7 222.84 297.924C223.38 298.752 223.344 299.796 222.768 300.588C222.228 301.38 221.364 301.452 220.572 301.452L213.516 301.416C213.624 301.416 213.48 302.64 213.444 304.188C213.444 305.952 213.516 307.14 213.588 307.212C214.848 307.32 219.348 307.356 220.608 307.32ZM233.244 307.248H232.416V310.524C232.38 311.028 232.308 311.604 232.02 312.144C231.876 312.432 231.66 312.684 231.408 312.864C231.048 313.116 230.472 313.224 230.076 313.224C229.716 313.224 229.212 313.152 228.924 312.972C227.952 312.396 227.808 311.064 227.808 311.028V298.788C227.772 298.608 227.844 297.492 228.132 296.916C228.348 296.448 229.032 296.124 229.716 296.052C230.544 295.944 231.444 296.16 231.84 296.592C232.416 297.348 232.416 298.032 232.416 299.328V303.252C232.812 303.288 234.756 303.324 235.188 303.432C236.124 303.612 236.448 304.008 236.556 304.512C236.7 305.016 236.736 305.844 236.448 306.312C235.872 307.248 234.648 307.212 233.244 307.248ZM228.564 319.524C228.564 317.868 224.748 317.652 221.4 317.652C218.052 317.652 214.452 317.868 214.452 319.524C214.452 321 218.052 321.36 221.4 321.36C224.748 321.36 228.564 321.468 228.564 319.524ZM261.723 320.856C261.759 320.892 263.199 321.216 263.343 322.224C263.451 323.124 263.307 323.844 262.875 324.348C262.299 325.032 261.435 325.068 261.399 325.068H243.039C241.095 325.068 239.907 324.42 239.907 323.34V318.336C239.871 317.796 239.871 316.752 239.907 316.212C240.015 315.204 241.023 314.52 242.103 314.52C242.355 314.52 242.751 314.556 243.003 314.628C244.299 315.024 244.371 316.608 244.443 317.688C244.479 318.084 244.407 320.532 244.443 320.784C244.587 320.82 245.091 320.928 246.855 320.928C248.403 320.928 249.807 320.856 249.843 320.856H261.723ZM238.143 312.54C237.819 312.396 237.567 312.108 237.423 311.712C236.631 309.768 238.827 307.896 239.907 306.6C240.735 305.592 241.491 304.584 242.283 303.54C242.859 302.748 243.651 301.524 243.723 300.48C243.759 299.904 243.831 298.5 243.975 297.96C244.263 297.024 244.839 296.7 246.171 296.7C246.927 296.7 248.115 296.916 248.439 297.672C248.799 298.536 248.439 299.796 248.727 300.696C248.943 301.416 249.519 302.208 250.023 302.964C250.923 304.26 251.895 305.952 252.651 306.996C253.407 308.004 254.235 309.084 254.487 310.308C254.955 312.396 252.291 313.224 250.959 311.856C249.195 310.056 247.863 307.824 246.315 305.844C246.279 305.808 242.103 310.884 241.743 311.316C241.239 311.928 240.519 312.468 239.727 312.648C239.187 312.756 238.611 312.756 238.143 312.54ZM262.731 299.328V311.892C262.731 311.928 262.587 313.332 261.651 313.944C261.327 314.124 261.003 314.232 260.643 314.232C260.211 314.232 259.815 314.088 259.455 313.836C259.203 313.656 258.987 313.404 258.843 313.08C258.123 311.64 258.411 309.516 258.411 307.932C258.447 305.88 258.447 302.352 258.447 300.336V299.868C258.411 299.328 258.411 298.716 258.555 298.176C258.663 297.78 258.879 297.42 259.203 297.024C259.599 296.556 260.355 296.304 261.147 296.412C261.831 296.52 262.371 296.88 262.587 297.348C262.875 297.96 262.767 299.148 262.731 299.328ZM277.357 311.928C276.673 312 272.029 311.892 271.237 311.928H271.201C269.509 311.928 267.673 311.964 266.917 310.848C266.089 309.588 266.269 306.672 266.269 306.564C266.269 306.564 266.269 305.376 266.305 303.756C266.341 302.028 266.341 300.192 266.341 300.192C266.341 299.904 266.341 298.5 266.701 297.924C267.133 297.24 267.529 296.988 268.249 296.844C268.789 296.772 270.301 296.7 270.301 296.7H278.437C279.481 296.7 280.777 296.808 281.677 297.384C283.081 298.284 282.721 300.192 282.721 301.56C282.721 302.316 282.685 303.072 282.721 303.828V305.808C282.685 306.06 282.721 306.348 282.721 306.636C282.649 307.248 282.721 307.86 282.721 308.508C282.721 309.516 282.469 311.136 281.317 311.568C280.057 312.072 278.653 311.928 277.357 311.928ZM273.361 325.104C271.417 325.104 270.085 324.096 270.085 323.016V317.832C270.049 317.292 270.049 316.752 270.085 316.212C270.193 315.204 270.949 314.52 272.029 314.52C272.281 314.52 273.073 314.556 273.325 314.628C274.585 315.024 274.657 316.248 274.729 317.328C274.765 317.724 274.801 320.496 274.873 320.82C275.017 320.856 275.521 320.964 277.285 320.964C278.833 320.964 278.977 320.892 279.013 320.892H290.785C290.821 320.928 292.261 321.252 292.405 322.26C292.513 323.16 292.369 323.88 291.937 324.384C291.361 325.068 290.497 325.104 290.461 325.104H273.361ZM292.117 307.716H291.649V311.46C291.613 311.964 291.541 312.54 291.253 313.08C291.109 313.368 290.893 313.62 290.641 313.764C290.281 314.016 289.849 314.16 289.417 314.16C289.057 314.16 288.697 314.052 288.409 313.872C287.437 313.296 287.293 312 287.293 311.964V299.328C287.293 299.112 287.329 298.032 287.617 297.456C287.833 296.988 288.373 296.664 289.093 296.592C289.885 296.484 290.677 296.7 291.073 297.132C291.361 297.492 291.433 297.852 291.541 298.248C291.685 298.716 291.685 299.292 291.649 299.796V303.684C292.045 303.72 293.665 303.792 294.061 303.9C294.997 304.08 295.321 304.44 295.465 304.98C295.573 305.484 295.609 306.312 295.321 306.78C294.745 307.716 293.521 307.716 292.117 307.716ZM277.177 301.272L272.749 301.2C272.317 301.2 271.957 301.2 271.669 301.272C271.273 301.308 271.093 301.416 270.841 301.704C270.661 301.956 270.661 302.568 270.661 302.676V304.188C270.625 304.872 270.625 305.556 270.625 305.556C270.625 305.592 270.553 306.816 270.985 307.356C271.381 307.824 272.353 307.824 273.217 307.824H273.253C274.513 307.788 275.089 307.824 276.385 307.824C276.781 307.824 277.177 307.86 277.573 307.788C277.969 307.752 278.077 307.536 278.149 307.248C278.185 307.104 278.221 306.96 278.221 306.78C278.329 306.276 278.365 305.772 278.365 305.232C278.365 304.476 278.401 303.684 278.365 302.928C278.329 302.568 278.401 302.136 278.293 301.776C278.113 301.272 277.609 301.272 277.177 301.272ZM299.843 311.748C298.871 311.064 298.187 310.056 297.791 308.868C297.323 307.644 297.179 306.492 297.179 305.304C297.179 304.044 297.395 303 297.791 301.956C298.259 300.948 298.799 300.048 299.555 299.364C300.311 298.572 301.139 297.996 302.219 297.6C303.191 297.132 304.343 296.916 305.567 296.916C306.035 296.844 306.395 296.844 306.827 296.916C307.223 296.916 307.691 296.988 308.087 297.06C308.267 297.132 308.519 297.132 308.735 297.204C308.987 297.204 309.203 297.312 309.347 297.384C309.887 297.528 310.319 297.672 310.787 297.924C311.255 298.14 311.651 298.356 312.011 298.572C312.299 298.716 312.695 299.04 313.019 299.364C313.487 299.832 313.775 300.192 314.063 300.696C314.351 301.164 314.603 301.704 314.675 302.316C314.819 302.856 314.891 303.396 314.999 303.936C315.071 304.44 315.143 304.98 315.071 305.592C315.071 305.88 314.999 306.276 314.999 306.564C314.891 306.96 314.891 307.356 314.747 307.644C314.603 308.544 314.279 309.48 313.847 310.236C313.307 311.064 312.695 311.64 311.867 312.216C311.255 312.576 310.643 312.9 309.959 313.044C309.347 313.224 308.663 313.332 308.015 313.476C307.763 313.548 307.547 313.548 307.295 313.548C307.151 313.548 306.899 313.548 306.683 313.62H306.035C305.855 313.62 305.639 313.62 305.387 313.548C305.099 313.548 304.775 313.548 304.487 313.476C304.127 313.476 303.803 313.404 303.479 313.404C302.795 313.296 302.219 313.116 301.607 312.828C300.959 312.504 300.383 312.216 299.843 311.748ZM323.063 300.984V303.324C323.135 304.26 323.135 305.304 323.135 306.384V312.216C323.135 313.296 323.135 314.268 323.063 315.168V319.272C322.991 320.028 323.063 320.82 323.063 321.468C323.063 321.936 323.063 322.404 322.991 322.764C322.991 323.16 322.919 323.448 322.739 323.7C322.667 323.916 322.523 324.06 322.451 324.312C322.271 324.456 322.127 324.672 321.731 324.816C321.299 325.14 320.687 325.212 320.075 325.14C319.679 325.032 319.391 324.888 319.175 324.672C318.959 324.528 318.779 324.24 318.635 323.916C318.491 323.592 318.383 323.304 318.383 322.98C318.311 322.764 318.239 322.476 318.239 322.332V321.936L318.167 300.588C318.167 299.976 318.167 299.364 318.311 298.608C318.383 297.924 318.635 297.384 318.959 297.024C319.247 296.808 319.535 296.628 319.751 296.556C320.075 296.484 320.363 296.484 320.759 296.484C321.155 296.484 321.515 296.556 321.911 296.808C322.199 297.024 322.451 297.348 322.595 297.708C322.811 298.248 322.991 298.788 322.991 299.292C322.991 299.832 322.991 300.444 323.063 300.984ZM315.143 317.58C315.467 317.688 315.755 317.832 315.971 317.976C316.439 318.444 316.727 318.912 316.727 319.488C316.727 319.884 316.583 320.28 316.331 320.568C316.115 320.856 315.863 321.072 315.539 321.18C315.287 321.252 315.071 321.324 314.819 321.324C314.531 321.396 314.279 321.396 314.063 321.396H310.643C309.815 321.396 308.987 321.396 308.087 321.468H305.567C304.703 321.396 304.055 321.396 303.407 321.396H299.627C299.159 321.396 298.727 321.324 298.259 321.252C298.007 321.18 297.791 321.072 297.575 321C297.323 320.928 297.179 320.856 296.963 320.676C296.675 320.352 296.495 319.956 296.495 319.344C296.495 318.84 296.675 318.444 296.963 318.12C297.107 317.904 297.323 317.76 297.647 317.688C297.935 317.58 298.259 317.508 298.475 317.436C298.799 317.364 298.979 317.364 299.159 317.364H312.767C313.235 317.364 313.703 317.364 314.063 317.436C314.459 317.436 314.747 317.508 315.143 317.58ZM301.967 304.656C301.895 305.124 301.895 305.592 301.967 306.096C302.075 306.636 302.219 307.104 302.435 307.5C302.939 308.256 303.659 308.796 304.559 309.156C305.243 309.408 305.927 309.48 306.611 309.48C307.007 309.408 307.295 309.408 307.691 309.336C308.015 309.336 308.339 309.156 308.663 309.012C309.131 308.796 309.527 308.4 309.815 307.932C310.139 307.428 310.247 306.96 310.391 306.42C310.571 305.592 310.499 304.908 310.247 304.116C310.139 303.792 309.959 303.468 309.815 303.216C309.671 303.072 309.599 302.856 309.419 302.784C309.347 302.604 309.203 302.46 308.987 302.316C308.807 302.208 308.591 302.1 308.411 302.028C308.231 301.884 308.015 301.812 307.763 301.704C307.151 301.56 306.539 301.488 305.855 301.488C305.243 301.488 304.631 301.56 304.127 301.812C303.587 302.028 303.119 302.316 302.723 302.856C302.363 303.324 302.147 303.936 301.967 304.656ZM345.998 300.804C345.962 300.768 345.962 303.576 345.998 303.756C346.25 303.972 347.006 304.692 347.438 305.052C347.906 305.448 348.41 305.916 348.95 306.42C349.274 306.744 349.562 307.068 349.814 307.32C350.714 308.22 351.794 309.336 352.118 310.416C352.262 310.848 352.19 311.46 351.686 311.82C351.326 312.036 350.894 312.18 350.39 312.18C349.346 312.18 348.302 311.64 347.726 311.208C346.826 310.524 346.07 309.768 345.314 309.012C344.774 308.472 344.09 307.68 343.406 307.176L342.434 308.148C342.11 308.472 341.75 308.796 341.462 309.12C340.85 309.804 340.202 310.524 339.338 311.136C338.366 311.856 337.43 312.216 336.566 312.216C336.35 312.216 336.17 312.216 335.954 312.144C335.45 312.036 335.09 311.82 334.91 311.496C334.586 310.956 334.766 310.2 335.054 309.696C335.414 309.156 335.954 308.652 336.422 308.148C337.286 307.212 340.562 304.152 340.958 303.756V300.804H338.654C337.466 300.804 335.414 301.092 334.802 299.688C334.586 299.148 334.478 298.428 334.622 297.852C334.802 297.168 335.63 296.952 336.242 296.88C336.458 296.844 339.446 296.916 339.77 296.844H348.194C350.102 296.844 351.434 296.988 352.226 297.924C352.694 298.5 352.55 300.048 351.794 300.408C351.434 300.552 350.822 300.768 350.426 300.804C349.742 300.84 349.058 300.804 348.374 300.804H345.998ZM357.59 315.276C359.57 315.276 360.506 316.284 360.506 317.4V319.452C360.506 319.74 360.506 321.972 360.542 322.224C360.542 322.728 360.542 323.268 360.506 323.808C360.434 324.816 359.642 325.5 358.562 325.5C358.31 325.5 357.554 325.464 357.302 325.392C356.006 324.996 355.934 323.808 355.862 322.728C355.862 322.296 355.826 319.92 355.718 319.56C355.574 319.524 355.106 319.452 353.306 319.452C351.794 319.452 351.614 319.488 351.578 319.488H338.582C338.51 319.488 337.106 319.128 336.962 318.156C336.818 317.22 336.962 316.5 337.394 315.996C337.97 315.312 338.834 315.312 338.87 315.276H357.59ZM361.298 307.176H360.47V310.452C360.434 310.956 360.362 311.532 360.074 312.072C359.93 312.36 359.714 312.612 359.462 312.792C359.102 313.044 358.526 313.152 358.13 313.152C357.77 313.152 357.266 313.08 356.978 312.9C356.006 312.324 355.862 310.992 355.862 310.956V299.076C355.826 298.896 355.898 297.78 356.186 297.204C356.402 296.736 357.086 296.412 357.77 296.34C358.598 296.232 359.498 296.448 359.894 296.88C360.182 297.24 360.254 297.6 360.362 297.996C360.506 298.464 360.506 299.04 360.47 299.544V302.028C360.47 302.028 360.434 302.496 360.47 303.18C360.866 303.216 362.81 303.252 363.242 303.36C364.178 303.54 364.502 303.936 364.61 304.44C364.754 304.944 364.79 305.772 364.502 306.24C363.926 307.176 362.702 307.14 361.298 307.176ZM378.754 308.292C371.806 308.292 366.514 307.284 366.514 301.992C366.514 297.168 371.806 295.692 378.754 295.692C385.702 295.692 390.994 296.628 390.994 301.992C390.994 307.284 385.702 308.292 378.754 308.292ZM389.41 320.928C389.482 320.964 390.814 321.288 390.958 322.296C391.102 323.196 390.958 323.916 390.526 324.42C389.986 325.104 389.194 325.14 389.158 325.14H369.502C367.666 325.14 366.55 324.492 366.55 323.412V320.208C366.514 319.668 366.514 319.128 366.55 318.588C366.622 317.58 367.378 316.896 368.386 316.896C368.638 316.896 369.142 316.932 369.358 317.004C370.582 317.4 370.654 318.624 370.726 319.704C370.726 320.1 370.762 320.532 370.87 320.856C370.978 320.892 371.698 321 373.39 321C374.83 321 376.162 320.928 376.198 320.928H389.41ZM388.294 310.632C389.95 310.632 392.254 310.236 392.254 312.828C392.254 313.368 392.002 313.908 391.534 314.34C390.778 314.988 389.59 314.952 388.618 314.916C388.402 314.88 388.186 314.88 387.97 314.88H368.134C368.062 314.88 366.406 314.916 365.722 314.196C365.434 313.872 365.29 313.404 365.29 312.936C365.29 312.432 365.47 312 365.758 311.712C366.37 311.136 367.054 310.704 367.774 310.632C367.918 310.632 368.062 310.668 368.206 310.632C368.89 310.56 369.682 310.668 370.474 310.632C372.958 310.56 375.514 310.632 378.286 310.632C381.31 310.632 384.874 310.56 388.114 310.632H388.294ZM378.754 299.724C375.226 299.724 371.41 300.156 371.41 301.992C371.41 303.612 374.218 304.404 378.754 304.332C382.282 304.332 386.098 304.116 386.098 301.992C386.098 300.156 382.282 299.724 378.754 299.724ZM416.161 307.896C409.213 307.896 403.921 307.248 403.921 301.956C403.921 297.132 409.213 296.016 416.161 296.016C423.109 296.016 428.401 296.592 428.401 301.956C428.401 307.248 423.109 307.896 416.161 307.896ZM416.161 300.048C412.633 300.048 408.817 300.12 408.817 301.956C408.817 303.576 411.625 304.008 416.161 303.936C419.689 303.936 423.505 304.08 423.505 301.956C423.505 300.12 419.689 300.048 416.161 300.048ZM404.929 309.804H426.061C427.717 309.804 429.661 309.66 429.661 311.856C429.661 312.396 429.409 312.792 428.941 313.224C428.185 313.872 426.997 313.836 426.025 313.8C425.809 313.764 425.593 313.764 425.377 313.764H404.857C404.209 313.764 402.697 313.548 402.697 311.964C402.697 310.56 403.849 309.804 404.929 309.804ZM405.145 325.104C405.109 325.104 405.073 325.068 405.037 325.032C404.569 324.672 404.425 323.88 404.425 323.34C404.389 322.476 404.281 321.612 404.281 320.784C404.281 319.56 404.245 318.624 404.461 317.436C404.605 316.68 404.893 316.248 405.613 315.96C406.261 315.708 406.945 315.564 407.629 315.564H424.225C425.125 315.6 426.133 315.636 426.997 316.032C427.933 316.428 428.185 317.148 428.257 318.084C428.329 319.74 428.401 322.404 427.933 324.132C427.789 324.672 427.681 325.104 427.105 325.284C426.601 325.464 425.989 325.5 425.485 325.5L407.089 325.428C406.477 325.392 405.685 325.464 405.145 325.104ZM408.565 321C408.565 321.216 408.565 321.504 408.709 321.612C408.889 321.792 409.717 321.684 409.717 321.684H420.625C420.625 321.684 422.317 321.828 423.217 321.72C423.685 321.684 423.721 321.432 423.757 321C423.793 320.604 423.865 320.028 423.577 319.668C423.253 319.272 422.533 319.344 422.065 319.38H412.417C411.373 319.308 410.365 319.344 409.321 319.38C408.925 319.38 408.745 319.308 408.637 319.74C408.565 320.064 408.565 320.388 408.565 320.676C408.601 320.748 408.565 320.856 408.565 321ZM444.603 297.132C447.483 298.68 448.671 301.38 448.383 305.124C448.095 309.912 445.755 312.252 440.787 312.252C438.159 312.252 436.719 312.468 434.379 310.956C432.111 309.48 431.427 306.852 431.427 304.332C431.427 301.812 432.291 299.472 434.343 297.888C436.035 296.556 438.231 295.908 440.319 296.088C442.227 296.232 442.911 296.376 444.603 297.132ZM453.531 315.924C455.511 315.924 456.447 316.932 456.447 318.048V320.1C456.447 320.388 456.447 322.296 456.483 322.548C456.483 323.052 456.483 323.592 456.447 324.132C456.375 325.14 455.583 325.824 454.503 325.824C454.251 325.824 453.495 325.788 453.243 325.716C451.947 325.32 451.875 324.132 451.803 323.052L451.659 320.208L435.567 320.136C435.099 320.136 433.263 319.776 433.119 318.804C432.975 317.868 433.299 317.148 433.731 316.644C434.307 315.96 435.747 315.924 435.783 315.924H453.531ZM457.275 307.176H456.411V311.172C456.375 311.676 456.303 312.252 456.015 312.792C455.871 313.08 455.655 313.332 455.403 313.512C455.043 313.764 454.467 313.872 454.071 313.872C453.711 313.872 453.207 313.8 452.919 313.62C451.947 313.044 451.803 311.712 451.803 311.676V299.076C451.767 298.896 451.839 297.78 452.127 297.204C452.343 296.736 453.027 296.412 453.711 296.34C454.539 296.232 455.439 296.448 455.835 296.88C456.123 297.24 456.195 297.6 456.303 297.996C456.447 298.464 456.447 299.04 456.411 299.544V302.028C456.411 302.028 456.375 302.496 456.411 303.18C456.807 303.216 458.787 303.252 459.219 303.36C460.155 303.54 460.479 303.936 460.587 304.44C460.731 304.944 460.767 305.772 460.479 306.24C459.903 307.176 458.679 307.14 457.275 307.176ZM444.099 305.52C444.099 303.432 443.847 301.668 441.795 300.912C439.599 300.156 436.287 300.84 435.819 303.828C435.531 305.88 436.395 308.112 439.383 308.364C441.399 308.58 443.559 307.932 444.099 305.52ZM463.787 310.236C464.255 310.236 464.759 310.236 465.263 310.236C465.875 310.236 467.027 310.236 467.603 310.236C467.603 309.552 467.603 308.652 467.711 308.004C467.711 306.312 467.999 304.836 469.979 304.764C470.339 304.764 470.627 304.836 470.951 304.944C471.239 305.16 471.419 305.34 471.527 305.664C471.743 305.952 471.815 306.096 471.815 306.528C471.887 306.816 471.887 307.104 471.887 307.5C472.031 307.788 471.887 308.184 471.887 308.472C471.887 308.76 471.887 309.048 471.887 309.336C471.887 309.624 471.887 309.912 471.887 310.236C472.319 310.236 472.607 310.236 472.787 310.236C473.075 310.236 473.291 310.236 473.507 310.236C473.651 310.236 473.939 310.236 474.263 310.236C474.551 310.236 476.135 310.236 476.711 310.236C477.107 310.236 477.467 310.236 477.899 310.236C478.259 310.236 478.655 310.344 479.015 310.524C479.375 310.74 479.519 310.92 479.735 311.208C479.807 311.604 479.951 311.892 479.951 312.288C479.951 312.864 479.735 313.224 479.375 313.728C479.015 314.16 478.655 314.34 478.259 314.448C477.755 314.448 477.395 314.448 476.963 314.448H463.787C463.787 314.448 463.679 314.448 463.607 314.448C463.391 314.448 463.211 314.34 462.995 314.34C462.815 314.232 462.635 314.232 462.419 314.052C462.203 313.944 462.059 313.872 461.915 313.584C461.735 313.44 461.627 313.224 461.627 313.08C461.555 312.792 461.555 312.576 461.555 312.288C461.555 311.82 461.627 311.532 461.915 311.1C462.131 310.812 462.419 310.524 462.815 310.416C463.211 310.236 463.607 310.344 463.787 310.236ZM476.711 308.292C475.847 308.364 474.947 308.076 474.659 307.392C474.551 307.104 474.443 306.708 474.371 306.096L474.443 302.424C474.443 302.208 474.371 301.704 474.263 301.524C474.083 301.344 473.939 301.128 473.651 301.128C473.579 301.02 473.363 301.02 472.895 301.02C472.391 301.02 471.887 301.02 471.239 301.02C469.475 300.948 467.711 300.84 465.875 300.948C464.399 301.02 462.635 300.84 462.203 299.076C462.131 298.608 462.131 298.176 462.419 297.816C463.103 296.628 464.111 296.34 465.443 296.34H473.939C475.199 296.412 476.891 296.628 477.899 297.6C478.943 298.68 478.871 300.552 478.871 301.92C478.727 304.764 479.663 308.184 476.711 308.292ZM473.363 320.784H485.531C485.531 320.784 485.603 320.856 485.711 320.856C485.891 321 486.071 321 486.179 321.216C486.359 321.288 486.575 321.36 486.791 321.576C486.863 321.792 487.007 321.972 487.079 322.152C487.151 323.124 487.079 323.844 486.575 324.312C486.359 324.672 486.071 324.888 485.711 325.032C485.387 325.032 485.243 325.104 485.243 325.104H466.631C465.731 325.104 464.975 324.888 464.471 324.6C463.895 324.312 463.679 323.916 463.679 323.34V320.1C463.607 319.524 463.607 319.02 463.679 318.444C463.679 317.976 463.895 317.544 464.255 317.256C464.579 316.896 464.975 316.752 465.551 316.752C465.659 316.752 465.731 316.752 466.019 316.752C466.235 316.752 466.307 316.752 466.523 316.896C466.811 316.968 467.027 317.04 467.207 317.256C467.423 317.472 467.495 317.76 467.603 317.976C467.711 318.264 467.783 318.552 467.783 318.732C467.783 319.02 467.783 319.308 467.927 319.596C467.927 319.812 467.927 320.028 467.927 320.208C467.927 320.424 467.999 320.568 467.999 320.784C468.071 320.784 468.287 320.784 468.683 320.856C469.079 320.856 469.691 320.856 470.555 320.856C471.311 320.856 471.887 320.856 472.499 320.856C473.075 320.784 473.363 320.784 473.363 320.784ZM482.075 300.228C482.075 299.076 481.895 297.888 482.831 296.916C483.623 296.052 484.739 296.052 485.711 296.736C485.999 296.916 486.071 297.204 486.179 297.6C486.359 298.104 486.503 298.608 486.503 299.184C486.575 299.652 486.575 300.228 486.575 300.732C486.575 301.416 486.575 302.28 486.575 302.892C486.647 303.468 486.647 304.044 486.647 304.656C487.079 304.656 487.583 304.656 487.943 304.656C488.267 304.764 488.555 304.764 488.699 304.764C489.131 304.764 489.419 304.836 489.599 305.16C489.887 305.34 490.103 305.664 490.175 305.952C490.391 306.24 490.391 306.708 490.391 306.996C490.391 307.284 490.319 307.572 490.103 307.86C489.887 308.292 489.527 308.58 488.915 308.652C488.267 308.868 486.647 308.868 486.647 308.868C486.647 308.868 486.647 312.288 486.647 312.684C486.575 314.052 485.603 314.736 484.235 314.628C482.363 314.448 482.255 312.576 482.183 311.1C482.075 307.716 482.075 303.684 482.075 300.228Z" fill="#223A58"/>
</g>
<defs>
<filter id="filter0_d_1_702" x="108.528" y="98.8964" width="39.893" height="62.6821" filterUnits="userSpaceOnUse" color-interpolation-filters="sRGB">
<feFlood flood-opacity="0" result="BackgroundImageFix"/>
<feColorMatrix in="SourceAlpha" type="matrix" values="0 0 0 0 0 0 0 0 0 0 0 0 0 0 0 0 0 0 127 0" result="hardAlpha"/>
<feOffset dy="2"/>
<feGaussianBlur stdDeviation="5"/>
<feComposite in2="hardAlpha" operator="out"/>
<feColorMatrix type="matrix" values="0 0 0 0 0 0 0 0 0 0 0 0 0 0 0 0 0 0 0.16 0"/>
<feBlend mode="normal" in2="BackgroundImageFix" result="effect1_dropShadow_1_702"/>
<feBlend mode="normal" in="SourceGraphic" in2="effect1_dropShadow_1_702" result="shape"/>
</filter>
<filter id="filter1_d_1_702" x="53.9528" y="62.4991" width="88.7667" height="70.3617" filterUnits="userSpaceOnUse" color-interpolation-filters="sRGB">
<feFlood flood-opacity="0" result="BackgroundImageFix"/>
<feColorMatrix in="SourceAlpha" type="matrix" values="0 0 0 0 0 0 0 0 0 0 0 0 0 0 0 0 0 0 127 0" result="hardAlpha"/>
<feOffset dy="2"/>
<feGaussianBlur stdDeviation="5"/>
<feComposite in2="hardAlpha" operator="out"/>
<feColorMatrix type="matrix" values="0 0 0 0 0 0 0 0 0 0 0 0 0 0 0 0 0 0 0.16 0"/>
<feBlend mode="normal" in2="BackgroundImageFix" result="effect1_dropShadow_1_702"/>
<feBlend mode="normal" in="SourceGraphic" in2="effect1_dropShadow_1_702" result="shape"/>
</filter>
<clipPath id="clip0_1_702">
<rect width="836" height="392" fill="white"/>
</clipPath>
</defs>
</svg>
