<svg width="400" height="400" viewBox="0 0 400 400" fill="none" xmlns="http://www.w3.org/2000/svg">
<g clip-path="url(#clip0_1_661)">
<rect width="400" height="400" rx="50" fill="#608BC1"/>
<circle cx="200" cy="200" r="145" transform="rotate(45 200 200)" stroke="white" stroke-width="10"/>
<circle cx="200" cy="199.64" r="45" transform="rotate(45 200 199.64)" fill="#CBDCEB"/>
<circle cx="200" cy="200.284" r="20" transform="rotate(45 200 200.284)" fill="white"/>
<path d="M140.603 215.556C141.311 234.566 158.041 256.041 183.737 258.69" stroke="white" stroke-width="8" stroke-linecap="round"/>
<path d="M108.783 213.435C115.108 251.505 147.321 285.206 186.565 291.217" stroke="white" stroke-width="9" stroke-linecap="round"/>
<path d="M79.0847 214.849C89.6894 272.233 127.004 309.169 185.151 320.915" stroke="white" stroke-width="9" stroke-linecap="round"/>
<path d="M216.469 139.691C235.479 140.399 256.953 157.128 259.602 182.824" stroke="white" stroke-width="8" stroke-linecap="round"/>
<path d="M214.348 107.87C252.418 114.195 286.12 146.407 292.13 185.652" stroke="white" stroke-width="9" stroke-linecap="round"/>
<path d="M215.762 78.1716C273.147 88.7758 310.083 126.09 321.828 184.238" stroke="white" stroke-width="9" stroke-linecap="round"/>
<g filter="url(#filter0_d_1_661)">
<path d="M132.029 115.398L136.92 143.077" stroke="white" stroke-width="15" stroke-linecap="round"/>
</g>
<g filter="url(#filter1_d_1_661)">
<path d="M77.4537 79L131.219 114.36" stroke="white" stroke-width="15" stroke-linecap="round"/>
</g>
<rect x="124.213" y="115.221" width="14.1778" height="16.4925" transform="rotate(-11.4504 124.213 115.221)" fill="white"/>
<circle cx="136.981" cy="142.349" r="3.5" transform="rotate(45.3828 136.981 142.349)" fill="#608BC1"/>
<rect x="71.3553" y="35" width="50" height="50" rx="14" transform="rotate(45 71.3553 35)" fill="#CBDCEB"/>
</g>
<defs>
<filter id="filter0_d_1_661" x="114.528" y="99.8964" width="39.893" height="62.6821" filterUnits="userSpaceOnUse" color-interpolation-filters="sRGB">
<feFlood flood-opacity="0" result="BackgroundImageFix"/>
<feColorMatrix in="SourceAlpha" type="matrix" values="0 0 0 0 0 0 0 0 0 0 0 0 0 0 0 0 0 0 127 0" result="hardAlpha"/>
<feOffset dy="2"/>
<feGaussianBlur stdDeviation="5"/>
<feComposite in2="hardAlpha" operator="out"/>
<feColorMatrix type="matrix" values="0 0 0 0 0 0 0 0 0 0 0 0 0 0 0 0 0 0 0.16 0"/>
<feBlend mode="normal" in2="BackgroundImageFix" result="effect1_dropShadow_1_661"/>
<feBlend mode="normal" in="SourceGraphic" in2="effect1_dropShadow_1_661" result="shape"/>
</filter>
<filter id="filter1_d_1_661" x="59.9528" y="63.4991" width="88.7666" height="70.3617" filterUnits="userSpaceOnUse" color-interpolation-filters="sRGB">
<feFlood flood-opacity="0" result="BackgroundImageFix"/>
<feColorMatrix in="SourceAlpha" type="matrix" values="0 0 0 0 0 0 0 0 0 0 0 0 0 0 0 0 0 0 127 0" result="hardAlpha"/>
<feOffset dy="2"/>
<feGaussianBlur stdDeviation="5"/>
<feComposite in2="hardAlpha" operator="out"/>
<feColorMatrix type="matrix" values="0 0 0 0 0 0 0 0 0 0 0 0 0 0 0 0 0 0 0.16 0"/>
<feBlend mode="normal" in2="BackgroundImageFix" result="effect1_dropShadow_1_661"/>
<feBlend mode="normal" in="SourceGraphic" in2="effect1_dropShadow_1_661" result="shape"/>
</filter>
<clipPath id="clip0_1_661">
<rect width="400" height="400" rx="50" fill="white"/>
</clipPath>
</defs>
</svg>
